<svg width="46" height="38" viewBox="0 0 46 38" fill="none" xmlns="http://www.w3.org/2000/svg">
<path fill-rule="evenodd" clip-rule="evenodd" d="M33.2799 1.45658L30.7551 2.91351L28.3101 2.01L25.8651 1.10658L24.8093 1.10297C24.0025 1.10033 23.6394 1.13825 23.2696 1.2638C23.0035 1.35416 21.0238 2.43971 18.8704 3.67606C15.6109 5.5474 14.8724 6.0072 14.4614 6.42134C13.8014 7.08641 13.5622 7.68999 13.5548 8.71007C13.5499 9.37365 13.5808 9.52463 13.8286 10.0496C14.1625 10.7568 14.7267 11.3344 15.4103 11.6689C16.057 11.9853 17.1429 12.0616 17.8249 11.8384C18.0752 11.7566 20.1053 10.6343 22.3364 9.34444C24.5675 8.05459 26.591 6.93015 26.833 6.84569C27.3648 6.66004 27.8615 6.64667 28.3807 6.8039C28.594 6.86857 32.3841 9.01107 36.8029 11.5651L44.8371 16.2087L45.0597 16.0007C45.3841 15.6978 45.5296 15.3684 45.5296 14.9371C45.5296 14.5938 45.1326 13.8801 41.4778 7.65206C39.2494 3.85458 37.3666 0.656538 37.2938 0.545326C37.0815 0.220928 36.6398 0.000352515 36.2019 5.78509e-07C35.8482 -0.000351358 35.5275 0.159515 33.2799 1.45658ZM8.62324 2.13071C8.29541 2.3212 8.03833 2.77308 4.37951 9.59106C0.178531 17.4194 0.275402 17.2062 0.617924 17.8686C0.742422 18.1094 1.59015 18.7403 1.78917 18.7403C1.83545 18.7403 2.18386 18.2027 2.56325 17.5455C2.94273 16.8885 3.41159 16.1634 3.60516 15.9342C5.60715 13.5643 9.10496 13.2515 11.4821 15.2299L12.0153 15.6736L12.567 15.5353C12.8704 15.4592 13.4725 15.3975 13.9049 15.3982C16.4636 15.4024 18.5 16.9177 19.2612 19.3836L19.4463 19.9829L20.0161 20.1755C20.8588 20.4601 21.3884 20.8034 22.1338 21.5483C22.8546 22.2685 23.3502 23.1226 23.5549 23.997L23.6631 24.4587L24.1963 24.6361C25.8567 25.1887 27.1781 26.5188 27.7286 28.1917C27.9241 28.7858 27.9637 29.0684 27.9696 29.9142C27.9793 31.2949 27.8224 31.7521 26.6134 33.865C26.0774 34.8018 25.6565 35.5859 25.6782 35.6075C25.8497 35.7791 29.4606 37.7805 29.7972 37.8906C30.0982 37.9891 30.4186 38.0187 30.8619 37.989C31.9857 37.9138 32.8269 37.3551 33.3181 36.3572C33.5788 35.8277 33.6073 35.6938 33.6034 35.0192C33.5984 34.1672 33.429 33.6873 32.9346 33.1238C32.6058 32.7493 32.568 32.7342 33.909 33.5116C35.3091 34.3234 36.1319 34.4133 37.2269 33.8743C38.2479 33.3717 38.8761 32.3853 38.8806 31.278C38.8836 30.5138 38.6758 29.8832 38.261 29.3987C38.0896 29.1983 37.9687 29.0344 37.9923 29.0344C38.0161 29.0344 38.3062 29.1883 38.6371 29.3763C39.4796 29.8552 39.8088 29.9424 40.592 29.8944C41.407 29.8445 41.9828 29.5938 42.5232 29.0538C43.1075 28.4698 43.369 27.8245 43.369 26.9668C43.369 25.7458 42.8508 24.9215 41.6417 24.2189C41.2638 23.9993 40.9544 23.8083 40.9544 23.7946C40.9544 23.7808 41.1028 23.8105 41.2843 23.8607C42.4399 24.1797 43.8986 23.453 44.5363 22.2406C44.7543 21.8263 44.7807 21.6846 44.78 20.9399C44.7792 20.232 44.7459 20.0366 44.5632 19.6641C44.1303 18.7815 43.9936 18.6929 35.6793 13.9011C31.3551 11.409 27.7652 9.35737 27.7016 9.34206C27.6381 9.32666 25.734 10.3828 23.4702 11.6889C18.6082 14.4944 18.4701 14.5541 16.8468 14.5514C15.9016 14.5499 15.6508 14.5176 15.0626 14.322C13.0597 13.6554 11.5252 11.9826 11.0796 9.97968C10.9687 9.48134 10.9414 9.06474 10.9742 8.37081C11.0462 6.84164 11.5321 5.71052 12.6004 4.58503C13.0239 4.13868 13.1242 3.98454 13.0403 3.90896C12.9804 3.8552 12.2188 3.40279 11.3478 2.90374C9.54065 1.86825 9.22769 1.77948 8.62324 2.13071ZM6.88371 16.6739C6.42382 16.8428 5.83142 17.2665 5.57169 17.6122C5.14849 18.1756 1.9464 23.8034 1.83052 24.1873C1.39465 25.6319 2.21132 27.273 3.6305 27.8044C4.19536 28.0159 5.125 28.0347 5.67912 27.8457C5.89336 27.7727 6.27856 27.5541 6.53494 27.3599L7.00126 27.0069L6.93087 27.3388C6.64853 28.6712 7.33621 30.0795 8.56377 30.6823C8.99454 30.8939 9.16487 30.9261 9.85203 30.9261C10.5475 30.9261 10.7027 30.8959 11.1278 30.678C11.394 30.5416 11.7389 30.3075 11.8945 30.1579L12.1773 29.8859L12.0823 30.23C11.9397 30.7459 12.0351 31.6583 12.2892 32.2101C12.8883 33.5113 14.4036 34.2239 15.7434 33.8344C16.337 33.6617 16.5926 33.5169 17.0336 33.1029L17.3526 32.8036L17.2275 33.2726C16.9722 34.2299 17.3008 35.3156 18.0734 36.0682C19.2409 37.2053 21.0989 37.1751 22.2354 36.0006C22.4831 35.7447 23.0902 34.7946 23.8422 33.4863C25.36 30.8457 25.4014 30.7523 25.4023 29.9666C25.4035 28.748 24.8113 27.7889 23.7287 27.256C23.2092 27.0002 23.0598 26.9672 22.4356 26.9705C21.6704 26.9745 21.1737 27.1404 20.587 27.5879L20.2769 27.8244L20.6955 27.0155C21.1006 26.2325 21.114 26.1821 21.114 25.4429C21.114 24.8039 21.0767 24.6002 20.8858 24.1953C20.5967 23.5826 20.0512 23.0378 19.4127 22.7243C18.9812 22.5124 18.8142 22.4805 18.1665 22.4862C17.3223 22.4937 16.8286 22.6651 16.2905 23.1375L15.9724 23.4169L16.4258 22.5369C16.8582 21.6977 16.8791 21.625 16.8791 20.9678C16.8791 20.4127 16.8347 20.1815 16.6509 19.78C16.347 19.1161 15.8225 18.5645 15.2006 18.2542C14.7621 18.0355 14.587 17.9996 13.9433 17.9963C13.3168 17.993 13.1169 18.0293 12.7115 18.2203C12.0246 18.5438 11.7132 18.8376 11.2372 19.611L10.8199 20.2891V19.4927C10.8199 18.7985 10.7883 18.6319 10.5735 18.1945C10.2649 17.5663 9.60312 16.9603 8.96462 16.7214C8.39756 16.5092 7.39428 16.4863 6.88371 16.6739Z" fill="url(#paint0_linear_161_374)"/>
<defs>
<linearGradient id="paint0_linear_161_374" x1="46" y1="-15" x2="-12.3981" y2="71.0899" gradientUnits="userSpaceOnUse">
<stop offset="0.245192" stop-color="#87F3FF"/>
<stop offset="0.389423" stop-color="#239CE4"/>
<stop offset="0.475962" stop-color="#4677DD"/>
<stop offset="0.5625" stop-color="#625AD8"/>
<stop offset="0.620192" stop-color="#694CC6"/>
<stop offset="0.706731" stop-color="#7338AC"/>
</linearGradient>
</defs>
</svg>
