<svg width="46" height="38" viewBox="0 0 46 38" fill="none" xmlns="http://www.w3.org/2000/svg">
<path fill-rule="evenodd" clip-rule="evenodd" d="M33.2789 1.45658L30.7541 2.91351L28.3091 2.01L25.8642 1.10658L24.8083 1.10297C24.0015 1.10033 23.6384 1.13825 23.2686 1.2638C23.0025 1.35416 21.0228 2.43971 18.8694 3.67606C15.6099 5.5474 14.8714 6.0072 14.4605 6.42134C13.8004 7.08641 13.5613 7.68999 13.5538 8.71007C13.5489 9.37365 13.5798 9.52463 13.8277 10.0496C14.1615 10.7568 14.7257 11.3344 15.4094 11.6689C16.056 11.9853 17.1419 12.0616 17.8239 11.8384C18.0742 11.7566 20.1044 10.6343 22.3355 9.34444C24.5666 8.05459 26.59 6.93015 26.832 6.84569C27.3638 6.66004 27.8605 6.64667 28.3797 6.8039C28.5931 6.86857 32.3831 9.01107 36.8019 11.5651L44.8362 16.2087L45.0588 16.0007C45.3831 15.6978 45.5286 15.3684 45.5286 14.9371C45.5286 14.5938 45.1316 13.8801 41.4768 7.65206C39.2484 3.85458 37.3656 0.656538 37.2929 0.545326C37.0805 0.220928 36.6389 0.000352515 36.2009 5.78509e-07C35.8472 -0.000351358 35.5266 0.159515 33.2789 1.45658ZM8.62227 2.13071C8.29444 2.3212 8.03735 2.77308 4.37853 9.59106C0.177555 17.4194 0.274426 17.2062 0.616948 17.8686C0.741445 18.1094 1.58917 18.7403 1.78819 18.7403C1.83447 18.7403 2.18289 18.2027 2.56228 17.5455C2.94175 16.8885 3.41062 16.1634 3.60418 15.9342C5.60617 13.5643 9.10398 13.2515 11.4811 15.2299L12.0143 15.6736L12.566 15.5353C12.8694 15.4592 13.4715 15.3975 13.904 15.3982C16.4626 15.4024 18.499 16.9177 19.2602 19.3836L19.4453 19.9829L20.0152 20.1755C20.8579 20.4601 21.3874 20.8034 22.1328 21.5483C22.8536 22.2685 23.3492 23.1226 23.554 23.997L23.6621 24.4587L24.1953 24.6361C25.8557 25.1887 27.1771 26.5188 27.7277 28.1917C27.9232 28.7858 27.9628 29.0684 27.9687 29.9142C27.9783 31.2949 27.8215 31.7521 26.6124 33.865C26.0764 34.8018 25.6555 35.5859 25.6772 35.6075C25.8488 35.7791 29.4596 37.7805 29.7963 37.8906C30.0972 37.9891 30.4176 38.0187 30.861 37.989C31.9848 37.9138 32.8259 37.3551 33.3171 36.3572C33.5778 35.8277 33.6063 35.6938 33.6024 35.0192C33.5974 34.1672 33.4281 33.6873 32.9336 33.1238C32.6048 32.7493 32.5671 32.7342 33.908 33.5116C35.3081 34.3234 36.1309 34.4133 37.2259 33.8743C38.247 33.3717 38.8752 32.3853 38.8796 31.278C38.8826 30.5138 38.6748 29.8832 38.2601 29.3987C38.0886 29.1983 37.9677 29.0344 37.9914 29.0344C38.0151 29.0344 38.3052 29.1883 38.6361 29.3763C39.4786 29.8552 39.8078 29.9424 40.591 29.8944C41.406 29.8445 41.9818 29.5938 42.5222 29.0538C43.1065 28.4698 43.3681 27.8245 43.3681 26.9668C43.3681 25.7458 42.8498 24.9215 41.6408 24.2189C41.2628 23.9993 40.9534 23.8083 40.9534 23.7946C40.9534 23.7808 41.1019 23.8105 41.2834 23.8607C42.439 24.1797 43.8976 23.453 44.5353 22.2406C44.7533 21.8263 44.7798 21.6846 44.779 20.9399C44.7782 20.232 44.7449 20.0366 44.5622 19.6641C44.1293 18.7815 43.9927 18.6929 35.6783 13.9011C31.3541 11.409 27.7642 9.35737 27.7006 9.34206C27.6371 9.32666 25.7331 10.3828 23.4692 11.6889C18.6072 14.4944 18.4691 14.5541 16.8458 14.5514C15.9006 14.5499 15.6498 14.5176 15.0616 14.322C13.0587 13.6554 11.5242 11.9826 11.0786 9.97968C10.9677 9.48134 10.9405 9.06474 10.9732 8.37081C11.0453 6.84164 11.5311 5.71052 12.5994 4.58503C13.023 4.13868 13.1233 3.98454 13.0393 3.90896C12.9794 3.8552 12.2178 3.40279 11.3468 2.90374C9.53968 1.86825 9.22672 1.77948 8.62227 2.13071ZM6.88273 16.6739C6.42284 16.8428 5.83044 17.2665 5.57072 17.6122C5.14751 18.1756 1.94542 23.8034 1.82954 24.1873C1.39367 25.6319 2.21034 27.273 3.62952 27.8044C4.19438 28.0159 5.12402 28.0347 5.67814 27.8457C5.89239 27.7727 6.27758 27.5541 6.53397 27.3599L7.00028 27.0069L6.92989 27.3388C6.64755 28.6712 7.33524 30.0795 8.56279 30.6823C8.99356 30.8939 9.1639 30.9261 9.85105 30.9261C10.5466 30.9261 10.7018 30.8959 11.1268 30.678C11.393 30.5416 11.738 30.3075 11.8935 30.1579L12.1763 29.8859L12.0813 30.23C11.9387 30.7459 12.0341 31.6583 12.2882 32.2101C12.8873 33.5113 14.4026 34.2239 15.7424 33.8344C16.336 33.6617 16.5916 33.5169 17.0327 33.1029L17.3516 32.8036L17.2265 33.2726C16.9713 34.2299 17.2998 35.3156 18.0725 36.0682C19.2399 37.2053 21.0979 37.1751 22.2345 36.0006C22.4821 35.7447 23.0892 34.7946 23.8412 33.4863C25.359 30.8457 25.4004 30.7523 25.4013 29.9666C25.4025 28.748 24.8104 27.7889 23.7277 27.256C23.2083 27.0002 23.0588 26.9672 22.4346 26.9705C21.6694 26.9745 21.1728 27.1404 20.586 27.5879L20.2759 27.8244L20.6945 27.0155C21.0996 26.2325 21.113 26.1821 21.113 25.4429C21.113 24.8039 21.0757 24.6002 20.8848 24.1953C20.5958 23.5826 20.0503 23.0378 19.4118 22.7243C18.9802 22.5124 18.8132 22.4805 18.1656 22.4862C17.3213 22.4937 16.8277 22.6651 16.2896 23.1375L15.9714 23.4169L16.4248 22.5369C16.8572 21.6977 16.8782 21.625 16.8782 20.9678C16.8782 20.4127 16.8337 20.1815 16.6499 19.78C16.346 19.1161 15.8216 18.5645 15.1996 18.2542C14.7611 18.0355 14.586 17.9996 13.9423 17.9963C13.3158 17.993 13.116 18.0293 12.7105 18.2203C12.0236 18.5438 11.7122 18.8376 11.2362 19.611L10.8189 20.2891V19.4927C10.8189 18.7985 10.7873 18.6319 10.5725 18.1945C10.264 17.5663 9.60215 16.9603 8.96365 16.7214C8.39659 16.5092 7.39331 16.4863 6.88273 16.6739Z" fill="url(#paint0_linear_274_2459)"/>
<defs>
<linearGradient id="paint0_linear_274_2459" x1="35.6836" y1="0.630858" x2="8.89272" y2="27.8517" gradientUnits="userSpaceOnUse">
<stop stop-color="#87F3FF"/>
<stop offset="0.305" stop-color="#239CE4"/>
<stop offset="0.555" stop-color="#625AD8"/>
<stop offset="0.885" stop-color="#7338AC"/>
</linearGradient>
</defs>
</svg>
