<svg width="47" height="38" viewBox="0 0 47 38" fill="none" xmlns="http://www.w3.org/2000/svg">
<path fill-rule="evenodd" clip-rule="evenodd" d="M19.0514 0.0878996C18.3028 0.209272 17.5526 0.620871 16.9736 1.22782C16.1236 2.11904 15.8523 2.97292 15.8511 4.76202L15.8503 5.66845L10.4486 5.69939C4.43281 5.73389 4.73539 5.70473 3.44636 6.3749C2.2161 7.01457 1.10792 8.48233 0.830673 9.83975C0.77501 10.1122 0.734375 11.3688 0.734375 12.8187V15.3266L12.005 19.0831C18.2039 21.1492 23.3754 22.8396 23.4972 22.8396C23.6191 22.8396 28.7906 21.1492 34.9895 19.0831L46.2601 15.3266V12.8187C46.2601 11.3688 46.2195 10.1122 46.1638 9.83975C45.8846 8.47282 44.7882 7.02071 43.5481 6.37525C42.2598 5.70473 42.5621 5.73389 36.5459 5.69939L31.1442 5.66845L31.1434 4.76202C31.1422 2.97292 30.8709 2.11904 30.0209 1.22782C29.4205 0.598464 28.689 0.210784 27.8542 0.0798081C27.1467 -0.0312498 19.744 -0.0244032 19.0514 0.0878996ZM27.2318 4.78932V5.6785H23.4972H19.7627V4.78932V3.90015H23.4972H27.2318V4.78932ZM0.734375 25.8584C0.734375 30.929 0.76603 33.5669 0.830673 33.8832C0.883579 34.1423 1.09013 34.6892 1.28975 35.0983C1.92827 36.4076 3.0994 37.3756 4.60229 37.8364C5.11294 37.993 5.92173 38 23.4972 38C41.0728 38 41.8816 37.993 42.3922 37.8364C43.834 37.3943 45.0516 36.4102 45.6598 35.1954C46.2832 33.9502 46.2601 34.3089 46.2601 25.8886C46.2601 21.7174 46.2306 18.3048 46.1945 18.3048C46.1584 18.3048 41.2058 19.9453 35.1888 21.9504L24.2488 25.596H23.4972H22.7457L11.8057 21.9504C5.78871 19.9453 0.836097 18.3048 0.799996 18.3048C0.763896 18.3048 0.734375 21.7039 0.734375 25.8584Z" fill="url(#paint0_linear_274_2454)"/>
<defs>
<linearGradient id="paint0_linear_274_2454" x1="36.3134" y1="0.630858" x2="9.52834" y2="28.1273" gradientUnits="userSpaceOnUse">
<stop stop-color="#87F3FF"/>
<stop offset="0.305" stop-color="#239CE4"/>
<stop offset="0.555" stop-color="#625AD8"/>
<stop offset="0.885" stop-color="#7338AC"/>
</linearGradient>
</defs>
</svg>
