<svg width="41" height="38" viewBox="0 0 41 38" fill="none" xmlns="http://www.w3.org/2000/svg">
<path fill-rule="evenodd" clip-rule="evenodd" d="M19.5014 0.0305463C14.3636 0.348376 9.69989 3.54029 7.49523 8.24776C6.90774 9.50215 6.49286 10.8488 6.31907 12.0652C6.27271 12.3899 6.2173 12.7654 6.19605 12.8997L6.15733 13.144L5.46208 13.1891C3.90103 13.2901 2.38682 14.0986 1.46733 15.3217C1.03183 15.9011 0.799166 16.348 0.557292 17.07C0.38051 17.5977 0.375 17.6979 0.375 20.369V23.1239L0.596646 23.7536C1.22121 25.5279 2.73228 26.9396 4.47215 27.3744C5.13599 27.5403 6.47618 27.6328 7.20487 27.5632C7.8706 27.4995 8.21117 27.347 8.47383 26.9947C8.63849 26.7739 8.63975 26.7303 8.68312 19.8714C8.72979 12.4701 8.72247 12.6091 9.14916 11.0883C9.49973 9.83887 10.2147 8.38872 10.998 7.3385C12.7882 4.93786 15.4053 3.3066 18.3995 2.72493C19.4101 2.52863 21.5134 2.53005 22.5711 2.72785C27.052 3.56563 30.6167 6.81949 31.8552 11.2024C32.2421 12.5715 32.2414 12.5561 32.2875 19.8714C32.3305 26.6786 32.3333 26.7755 32.4932 26.9947C32.5823 27.1168 32.8125 27.2993 33.0048 27.4002C33.341 27.5766 33.4052 27.5821 34.6924 27.5449C36.2295 27.5004 36.6709 27.4078 37.6301 26.9283C38.8711 26.3079 39.8909 25.1277 40.3735 23.7536L40.5946 23.1239L40.6199 20.6122C40.6412 18.4903 40.6248 18.0077 40.5137 17.5031C39.9874 15.112 37.9389 13.3465 35.5085 13.1891L34.8133 13.144L34.7742 12.8997C34.7527 12.7654 34.6967 12.3821 34.6497 12.048C34.4834 10.8646 33.9191 9.09939 33.3355 7.93677C31.9724 5.2209 29.619 2.85851 26.9405 1.51721C24.635 0.362701 22.1525 -0.133406 19.5014 0.0305463ZM5.65689 29.214C5.83005 30.1806 6.39589 31.519 7.0299 32.4615C7.47304 33.1204 8.6658 34.304 9.30855 34.7225C10.8191 35.7063 12.2988 36.1503 14.0672 36.1503H15.0543V35.4531V34.7559L14.0114 34.7117C12.7589 34.6588 11.9947 34.4772 11.0008 33.9965C9.46707 33.2548 8.3364 32.0993 7.61629 30.5377C7.47264 30.2264 7.30129 29.7645 7.23541 29.5114C7.16953 29.2583 7.10428 29.0415 7.09051 29.0297C7.07665 29.0178 6.73694 28.9903 6.33552 28.9684L5.60573 28.9286L5.65689 29.214ZM18.2814 32.9945C17.5672 33.221 16.9541 33.7521 16.6374 34.4187C16.3606 35.0015 16.352 35.9252 16.6184 36.4759C16.9007 37.0597 17.2945 37.4576 17.87 37.7409L18.3964 38H20.4855H22.5745L23.1008 37.7409C23.6761 37.4576 24.07 37.0596 24.3522 36.4759C24.6186 35.9252 24.61 35.0015 24.3332 34.4187C24.0857 33.8976 23.6543 33.4533 23.1221 33.1712L22.7285 32.9626L20.6034 32.9473C19.4345 32.939 18.3897 32.9602 18.2814 32.9945Z" fill="url(#paint0_linear_274_2464)"/>
<defs>
<linearGradient id="paint0_linear_274_2464" x1="31.8332" y1="0.630858" x2="5.16417" y2="24.8372" gradientUnits="userSpaceOnUse">
<stop stop-color="#87F3FF"/>
<stop offset="0.305" stop-color="#239CE4"/>
<stop offset="0.555" stop-color="#625AD8"/>
<stop offset="0.885" stop-color="#7338AC"/>
</linearGradient>
</defs>
</svg>
