<svg width="34" height="40" viewBox="0 0 34 40" fill="none" xmlns="http://www.w3.org/2000/svg">
<g clip-path="url(#clip0_642_1064)">
<path d="M30.618 14.042C29.715 14.042 28.518 14.022 27.029 14.022C23.397 14.022 20.411 11.016 20.411 7.35V0.918C20.4119 0.798281 20.3892 0.679555 20.3442 0.568609C20.2992 0.457663 20.2328 0.356674 20.1488 0.271416C20.0647 0.186158 19.9647 0.118303 19.8544 0.0717318C19.7441 0.0251601 19.6257 0.000784957 19.506 0L8.927 0C3.99 0 0 4.052 0 9.018V30.568C0 35.778 4.18 40 9.34 40H25.093C30.012 40 34 35.974 34 31.004V14.942C34.0013 14.8223 33.9789 14.7035 33.934 14.5924C33.8891 14.4814 33.8227 14.3804 33.7386 14.2952C33.6544 14.2101 33.5542 14.1424 33.4437 14.0962C33.3333 14.05 33.2147 14.0261 33.095 14.026C32.249 14.032 31.235 14.042 30.618 14.042Z" fill="white"/>
<path d="M25.1654 1.13474C24.5674 0.51274 23.5234 0.94074 23.5234 1.80274V7.07674C23.5234 9.28874 25.3454 11.1087 27.5574 11.1087C28.9514 11.1247 30.8874 11.1287 32.5314 11.1247C32.7185 11.1246 32.9015 11.0694 33.0574 10.966C33.2134 10.8627 33.3356 10.7157 33.4087 10.5435C33.4818 10.3713 33.5026 10.1814 33.4686 9.99738C33.4346 9.81339 33.3473 9.64346 33.2174 9.50874C31.1074 7.31474 27.3294 3.38274 25.1654 1.13474Z" fill="#239CE4"/>
<path fill-rule="evenodd" clip-rule="evenodd" d="M10.951 18.7759H17.721C17.9212 18.7832 18.1207 18.7501 18.3078 18.6786C18.4948 18.6071 18.6656 18.4986 18.8097 18.3596C18.9539 18.2206 19.0686 18.054 19.1469 17.8697C19.2253 17.6853 19.2656 17.4871 19.2656 17.2869C19.2656 17.0866 19.2253 16.8884 19.1469 16.7041C19.0686 16.5198 18.9539 16.3532 18.8097 16.2142C18.6656 16.0752 18.4948 15.9667 18.3078 15.8951C18.1207 15.8236 17.9212 15.7905 17.721 15.7979H10.951C10.5656 15.812 10.2006 15.9751 9.93291 16.2528C9.66521 16.5305 9.51562 16.9012 9.51562 17.2869C9.51562 17.6726 9.66521 18.0433 9.93291 18.321C10.2006 18.5987 10.5656 18.7617 10.951 18.7759ZM10.951 28.7649H21.839C22.0392 28.7722 22.2387 28.7391 22.4258 28.6676C22.6128 28.5961 22.7836 28.4876 22.9277 28.3486C23.0719 28.2096 23.1866 28.043 23.2649 27.8587C23.3433 27.6743 23.3836 27.4761 23.3836 27.2759C23.3836 27.0756 23.3433 26.8774 23.2649 26.6931C23.1866 26.5088 23.0719 26.3422 22.9277 26.2032C22.7836 26.0642 22.6128 25.9557 22.4258 25.8841C22.2387 25.8126 22.0392 25.7795 21.839 25.7869H10.951C10.5656 25.801 10.2006 25.9641 9.93291 26.2418C9.66521 26.5195 9.51563 26.8902 9.51562 27.2759C9.51563 27.6616 9.66521 28.0323 9.93291 28.31C10.2006 28.5877 10.5656 28.7507 10.951 28.7649Z" fill="#239CE4"/>
</g>
<defs>
<clipPath id="clip0_642_1064">
<rect width="34" height="40" fill="white"/>
</clipPath>
</defs>
</svg>
