<svg width="41" height="36" viewBox="0 0 41 36" fill="none" xmlns="http://www.w3.org/2000/svg">
<g clip-path="url(#clip0_642_154)">
<path d="M39.2656 20.9491C37.6236 20.9491 36.2876 19.6251 36.2876 17.9981C36.2876 16.3691 37.6236 15.0451 39.2656 15.0451C39.6636 15.0451 40.0456 14.8891 40.3256 14.6111C40.6076 14.3311 40.7656 13.9531 40.7656 13.5591L40.7636 8.20409C40.7636 3.67809 37.0456 -0.00390625 32.4776 -0.00390625H9.05363C4.48563 -0.00390625 0.767625 3.67809 0.767625 8.20409L0.765625 13.7311C0.765625 14.1261 0.923625 14.5041 1.20562 14.7841C1.48563 15.0611 1.86762 15.2181 2.26562 15.2181C3.96362 15.2181 5.24363 16.4131 5.24363 17.9981C5.24363 19.6251 3.90762 20.9481 2.26562 20.9481C1.43762 20.9481 0.765625 21.6151 0.765625 22.4351V27.7851C0.765625 32.3131 4.48163 35.9961 9.05163 35.9961H32.4796C37.0496 35.9961 40.7656 32.3121 40.7656 27.7861V22.4361C40.7656 21.6151 40.0936 20.9491 39.2656 20.9491Z" fill="white"/>
<path d="M27.6248 17.1744L25.2678 19.4704L25.8258 22.7164C25.8741 22.9891 25.8441 23.2698 25.7393 23.5261C25.6345 23.7823 25.4593 24.0037 25.2338 24.1644C25.011 24.3288 24.746 24.4264 24.4698 24.4459C24.1936 24.4654 23.9175 24.4059 23.6738 24.2744L20.7638 22.7444L17.8478 24.2764C17.6367 24.3893 17.4012 24.449 17.1618 24.4504C16.8558 24.4504 16.5538 24.3544 16.2938 24.1664C16.0691 24.0047 15.8945 23.7829 15.7901 23.5264C15.6857 23.2699 15.6558 22.9892 15.7038 22.7164L16.2598 19.4704L13.9018 17.1744C13.7027 16.982 13.5619 16.7373 13.4957 16.4684C13.4295 16.1994 13.4407 15.9173 13.5278 15.6544C13.7058 15.1144 14.1658 14.7304 14.7278 14.6504L17.9798 14.1764L19.4378 11.2224C19.5598 10.9749 19.7487 10.7666 19.9831 10.6209C20.2174 10.4753 20.4879 10.3982 20.7638 10.3984H20.7678C21.0437 10.3983 21.3141 10.4757 21.5482 10.6217C21.7823 10.7677 21.9707 10.9766 22.0918 11.2244L23.5498 14.1764L26.8078 14.6524C27.0807 14.6903 27.3374 14.8044 27.5482 14.9817C27.7591 15.1589 27.9157 15.3921 27.9998 15.6544C28.088 15.9172 28.0996 16.1996 28.0334 16.4687C27.9672 16.7378 27.8248 16.9826 27.6248 17.1744Z" fill="#239CE4"/>
</g>
<defs>
<clipPath id="clip0_642_154">
<rect width="40" height="36" fill="white" transform="translate(0.765625 -0.00390625)"/>
</clipPath>
</defs>
</svg>
