<svg width="41" height="40" viewBox="0 0 41 40" fill="none" xmlns="http://www.w3.org/2000/svg">
<g clip-path="url(#clip0_642_1166)">
<path fill-rule="evenodd" clip-rule="evenodd" d="M27.2506 5.47109C27.2506 9.91309 30.8576 13.5141 35.3056 13.5141C35.7956 13.5121 36.2846 13.4641 36.7656 13.3741V29.3191C36.7656 36.0271 32.8086 39.9961 26.0906 39.9961H11.4586C4.72262 39.9961 0.765625 36.0271 0.765625 29.3191V14.7091C0.765625 7.99909 4.72262 3.99609 11.4586 3.99609H27.3916C27.2976 4.48209 27.2486 4.97609 27.2506 5.47109ZM23.0656 25.7901L28.7816 18.4141V18.3791C29.017 18.063 29.1193 17.6674 29.0668 17.2769C29.0143 16.8863 28.8111 16.5318 28.5006 16.2891C28.3458 16.1695 28.1686 16.0823 27.9794 16.0325C27.7902 15.9827 27.593 15.9715 27.3994 15.9993C27.2057 16.0272 27.0197 16.0937 26.8523 16.1948C26.6848 16.296 26.5394 16.4297 26.4246 16.5881L21.6056 22.7861L16.1196 18.4661C15.9645 18.3452 15.7869 18.2565 15.5971 18.2051C15.4074 18.1537 15.2092 18.1406 15.0143 18.1667C14.8195 18.1928 14.6317 18.2574 14.4621 18.3569C14.2925 18.4564 14.1445 18.5887 14.0266 18.7461L8.11662 26.3681C7.90951 26.6271 7.79792 26.9495 7.80062 27.2811C7.78497 27.6071 7.87769 27.9292 8.06432 28.197C8.25094 28.4648 8.52096 28.6633 8.83225 28.7615C9.14354 28.8597 9.47858 28.8521 9.78509 28.7399C10.0916 28.6276 10.3523 28.4171 10.5266 28.1411L15.4686 21.7501L20.9556 26.0521C21.1101 26.1766 21.2881 26.2687 21.4789 26.3229C21.6697 26.3772 21.8695 26.3925 22.0664 26.368C22.2633 26.3434 22.4532 26.2795 22.6248 26.1801C22.7965 26.0806 22.9464 25.9477 23.0656 25.7891V25.7901Z" fill="white"/>
<path d="M35.7656 9.99609C37.0917 9.99609 38.3635 9.46931 39.3012 8.53163C40.2388 7.59395 40.7656 6.32218 40.7656 4.99609C40.7656 3.67001 40.2388 2.39824 39.3012 1.46056C38.3635 0.522878 37.0917 -0.00390625 35.7656 -0.00390625C34.4395 -0.00390625 33.1678 0.522878 32.2301 1.46056C31.2924 2.39824 30.7656 3.67001 30.7656 4.99609C30.7656 6.32218 31.2924 7.59395 32.2301 8.53163C33.1678 9.46931 34.4395 9.99609 35.7656 9.99609Z" fill="#239CE4"/>
</g>
<defs>
<clipPath id="clip0_642_1166">
<rect width="40" height="40" fill="white" transform="translate(0.765625 -0.00390625)"/>
</clipPath>
</defs>
</svg>
