<svg width="40" height="40" viewBox="0 0 40 40" fill="none" xmlns="http://www.w3.org/2000/svg">
<g clip-path="url(#clip0_642_1073)">
<path d="M10.1754 10.802L6.70941 11.07C6.23674 11.105 5.77845 11.2482 5.36993 11.4885C4.96142 11.7288 4.61362 12.0599 4.35341 12.456L0.356409 18.501C0.157573 18.8003 0.0375523 19.1449 0.00748344 19.5029C-0.0225855 19.861 0.0382722 20.2208 0.184409 20.549C0.481409 21.219 1.09141 21.687 1.81541 21.799L4.98841 22.29C5.73141 18.351 7.50841 14.422 10.1754 10.802ZM17.7104 35.012L18.2014 38.185C18.3134 38.909 18.7814 39.519 19.4514 39.815C19.7797 39.9609 20.1395 40.0216 20.4975 39.9915C20.8554 39.9614 21.2 39.8416 21.4994 39.643L27.5444 35.647C27.9406 35.3868 28.2716 35.039 28.5119 34.6305C28.7522 34.222 28.8954 33.7637 28.9304 33.291L29.1984 29.825C25.5784 32.493 21.6494 34.27 17.7104 35.012ZM16.5164 32.812C16.6264 32.812 16.7374 32.803 16.8484 32.785C18.4984 32.509 20.0884 32.045 21.6064 31.435L8.56541 18.396C7.94539 19.9288 7.49276 21.524 7.21541 23.154C7.1633 23.4751 7.18835 23.804 7.28851 24.1135C7.38867 24.4231 7.56105 24.7043 7.79141 24.934L15.0684 32.21C15.4554 32.597 15.9784 32.812 16.5164 32.812ZM36.8104 17.735C40.0024 11.565 40.1204 5.045 39.9534 1.987C39.926 1.48137 39.7129 1.00366 39.3548 0.645604C38.9967 0.287544 38.519 0.074367 38.0134 0.0470025C37.4296 0.0154454 36.8451 -0.000227025 36.2604 2.48434e-06C32.8414 2.48434e-06 27.4304 0.518003 22.2664 3.19C18.1614 5.313 12.7784 9.988 9.60341 16.132C9.64041 16.161 9.67741 16.192 9.71141 16.227L23.7744 30.289C23.8084 30.324 23.8394 30.36 23.8694 30.398C30.0124 27.222 34.6874 21.839 36.8104 17.735ZM23.2594 8.456C24.3591 7.3589 25.849 6.74277 27.4024 6.74277C28.9558 6.74277 30.4457 7.3589 31.5454 8.456C32.0911 8.99902 32.5236 9.64488 32.818 10.3562C33.1124 11.0675 33.2628 11.8302 33.2604 12.6C33.2627 13.3699 33.1122 14.1326 32.8176 14.8439C32.5231 15.5553 32.0903 16.2011 31.5444 16.744C31.0006 17.2882 30.3547 17.7197 29.6437 18.0137C28.9328 18.3076 28.1707 18.4583 27.4014 18.457C25.9014 18.457 24.4004 17.887 23.2584 16.744C22.7123 16.2012 22.2794 15.5554 21.9846 14.8441C21.6899 14.1327 21.5393 13.37 21.5414 12.6C21.5394 11.8302 21.6901 11.0676 21.9848 10.3565C22.2796 9.64532 22.7124 8.9997 23.2584 8.457L23.2594 8.456Z" fill="white"/>
<path d="M24.9154 15.0859C25.5753 15.7442 26.4693 16.1139 27.4014 16.1139C28.3335 16.1139 29.2275 15.7442 29.8874 15.0859C30.2149 14.7603 30.4746 14.3728 30.6514 13.9461C30.8282 13.5194 30.9186 13.0618 30.9174 12.5999C30.9174 11.6599 30.5514 10.7779 29.8874 10.1139C29.561 9.7872 29.1733 9.52817 28.7465 9.35175C28.3197 9.17533 27.8622 9.085 27.4004 9.08594C26.5004 9.08594 25.6004 9.42794 24.9144 10.1139C24.5869 10.4396 24.3272 10.8271 24.1504 11.2538C23.9736 11.6805 23.8832 12.138 23.8844 12.5999C23.8844 13.5389 24.2504 14.4219 24.9144 15.0859H24.9154ZM1.19638 32.9639C1.49638 32.9639 1.79638 32.8489 2.02438 32.6209L5.85038 28.7939C5.96342 28.6861 6.05376 28.5567 6.11608 28.4135C6.1784 28.2702 6.21145 28.116 6.21329 27.9597C6.21513 27.8035 6.18571 27.6485 6.12677 27.5038C6.06784 27.3591 5.98057 27.2277 5.8701 27.1172C5.75963 27.0068 5.62819 26.9195 5.4835 26.8606C5.33882 26.8016 5.18381 26.7722 5.02759 26.774C4.87137 26.7759 4.7171 26.8089 4.57384 26.8713C4.43058 26.9336 4.30122 27.0239 4.19338 27.1369L0.367383 30.9629C0.20371 31.1269 0.0923014 31.3357 0.047232 31.5629C0.00216249 31.7902 0.0254537 32.0257 0.114163 32.2397C0.202873 32.4537 0.353022 32.6367 0.545641 32.7654C0.738261 32.8941 0.96471 32.9639 1.19638 32.9639ZM9.35738 30.6429C9.24854 30.534 9.11931 30.4476 8.97707 30.3887C8.83482 30.3297 8.68236 30.2994 8.52838 30.2994C8.37441 30.2994 8.22194 30.3297 8.0797 30.3887C7.93746 30.4476 7.80822 30.534 7.69938 30.6429L0.343383 37.9999C0.123519 38.2198 0 38.518 0 38.8289C0 39.1399 0.123519 39.4381 0.343383 39.6579C0.563248 39.8778 0.861448 40.0013 1.17238 40.0013C1.48332 40.0013 1.78152 39.8778 2.00138 39.6579L9.35738 32.2999C9.81438 31.8419 9.81438 31.1009 9.35738 30.6429ZM11.2064 34.1499L7.38038 37.9759C7.16911 38.1974 7.05285 38.4927 7.05645 38.7987C7.06005 39.1048 7.18322 39.3973 7.39964 39.6137C7.61606 39.8301 7.90855 39.9533 8.21459 39.9569C8.52063 39.9605 8.81594 39.8442 9.03738 39.6329L12.8634 35.8069C12.9764 35.6991 13.0668 35.5697 13.1291 35.4265C13.1914 35.2832 13.2245 35.129 13.2263 34.9727C13.2281 34.8165 13.1987 34.6615 13.1398 34.5168C13.0808 34.3721 12.9936 34.2407 12.8831 34.1302C12.7726 34.0198 12.6412 33.9325 12.4965 33.8736C12.3518 33.8146 12.1968 33.7852 12.0406 33.787C11.8844 33.7889 11.7301 33.8219 11.5868 33.8842C11.4436 33.9466 11.3142 34.0369 11.2064 34.1499Z" fill="#239CE4"/>
</g>
<defs>
<clipPath id="clip0_642_1073">
<rect width="40" height="40" fill="white"/>
</clipPath>
</defs>
</svg>
